<mxfile host="app.diagrams.net" modified="2023-08-30T06:35:24.593Z" agent="Mozilla/5.0 (Windows NT 10.0; Win64; x64) AppleWebKit/537.36 (KHTML, like Gecko) Chrome/115.0.0.0 Safari/537.36 OPR/101.0.0.0" version="21.6.8" etag="3iHXeNMA6jhBlrwExn6H" type="github">
  <diagram name="Seite-1" id="zcXe4YGJU9vh_RzgwuwY">
    <mxGraphModel>
      <root>
        <mxCell id="0" />
        <mxCell id="1" parent="0" />
      </root>
    </mxGraphModel>
  </diagram>
</mxfile>
